# Blender 5.0.1
# www.blender.org
mtllib Mav Mesh.mtl
o NavMesh
v -20.342344 -1.206878 -0.238228
v -20.264414 -1.206878 -3.199927
v -15.771073 -1.206878 -3.199927
v -15.771073 -1.206878 9.632574
v -15.940254 -1.206878 4.803055
v -20.282270 -1.206878 9.632574
v -9.330177 -1.206878 -3.066599
v -11.415887 -1.206878 10.780033
v -11.415887 -1.206878 4.803055
v -20.311079 -1.206878 -2.026946
v 6.080014 -1.206878 -5.588058
v 5.837146 -1.206878 11.008005
v 6.080014 -1.206878 4.803055
v -20.359837 -1.206878 4.803055
v 11.857803 -1.206878 -5.588058
v 9.129288 -1.206878 9.632574
v 11.860592 -1.206878 4.803055
v 16.296581 -1.206878 -2.425471
v -15.940254 -1.206878 -0.238228
v -11.415887 -1.206878 -0.238228
v 6.080014 -1.206878 -0.238227
v 11.857803 -1.206878 -0.238227
v -15.771072 -1.206878 16.636848
v -11.415886 -1.206878 17.213007
v 8.982735 -1.206878 17.327477
v 18.474630 -1.206878 14.760681
v -15.872381 -1.206878 -2.026946
v -11.415887 -1.206878 -2.026946
v 6.080014 -1.206878 -2.425471
v 11.857803 -1.206878 -2.425471
v 16.296581 -1.206878 -5.588058
v -2.776238 -1.206878 -5.640465
v -4.078189 -1.206878 10.876989
v -3.974897 -1.206878 4.803055
v -3.974897 -1.206878 -0.238227
v -3.974897 -1.206878 -2.425471
vn -0.0000 1.0000 -0.0000
vt 0.086007 0.478656
vt 0.187589 0.478656
vt 0.187589 0.642976
vt 0.086007 0.642976
vt 0.086409 0.888921
vt 0.187589 0.888921
vt 0.187589 1.000000
vt 0.086409 1.000000
vt 0.285659 0.478656
vt 0.285659 0.642976
vt 0.187589 0.240341
vt 0.285659 0.240341
vt 0.285659 0.888921
vt 0.285659 1.000000
vt 0.453213 0.478656
vt 0.679628 0.478656
vt 0.679628 0.642976
vt 0.453213 0.642976
vt 0.453213 0.888921
vt 0.679628 0.888921
vt 0.679628 1.000000
vt 0.453213 1.000000
vt 0.748291 0.478656
vt 0.748291 0.642976
vt 0.679628 0.240341
vt 0.748291 0.240341
vt 0.748291 0.888921
vt 0.748291 1.000000
vt 0.748291 0.814502
vt 0.679628 0.814502
vt 0.453213 0.814502
vt 0.285659 0.814502
vt 0.187589 0.814502
vt 0.880518 0.888921
vt 0.880518 1.000000
vt 0.086409 0.814502
s 0
f 6/1/1 4/2/1 5/3/1 14/4/1
f 10/5/1 27/6/1 3/7/1 2/8/1
f 4/2/1 8/9/1 9/10/1 5/3/1
f 23/11/1 24/12/1 8/9/1 4/2/1
f 27/6/1 28/13/1 7/14/1 3/7/1
f 33/15/1 12/16/1 13/17/1 34/18/1
f 36/19/1 29/20/1 11/21/1 32/22/1
f 12/16/1 16/23/1 17/24/1 13/17/1
f 25/25/1 26/26/1 16/23/1 12/16/1
f 29/20/1 30/27/1 15/28/1 11/21/1
f 13/17/1 17/24/1 22/29/1 21/30/1
f 34/18/1 13/17/1 21/30/1 35/31/1
f 5/3/1 9/10/1 20/32/1 19/33/1
f 30/27/1 18/34/1 31/35/1 15/28/1
f 21/30/1 22/29/1 30/27/1 29/20/1
f 35/31/1 21/30/1 29/20/1 36/19/1
f 19/33/1 20/32/1 28/13/1 27/6/1
f 1/36/1 19/33/1 27/6/1 10/5/1
f 20/32/1 35/31/1 36/19/1 28/13/1
f 9/10/1 34/18/1 35/31/1 20/32/1
f 28/13/1 36/19/1 32/22/1 7/14/1
f 8/9/1 33/15/1 34/18/1 9/10/1
